<svg width="157" height="44" viewBox="0 0 157 44" fill="none" xmlns="http://www.w3.org/2000/svg">
<rect x="0.5" y="0.5" width="156" height="43" rx="21.5" stroke="#B9B9B9"/>
<path d="M21.136 16.8C22.3627 16.8 23.312 17.056 23.984 17.568C24.6667 18.08 25.008 18.7947 25.008 19.712C25.008 20.384 24.8267 20.9387 24.464 21.376C24.112 21.8027 23.6 22.0907 22.928 22.24C24.6027 22.528 25.44 23.408 25.44 24.88C25.44 25.8507 25.0773 26.6133 24.352 27.168C23.6373 27.7227 22.6133 28 21.28 28H17.024V16.8H21.136ZM18.864 21.552H21.184C21.8133 21.552 22.2987 21.408 22.64 21.12C22.992 20.832 23.168 20.4373 23.168 19.936C23.168 19.4347 22.992 19.0453 22.64 18.768C22.2987 18.48 21.8133 18.336 21.184 18.336H18.864V21.552ZM18.864 26.448H21.296C22.0213 26.448 22.576 26.304 22.96 26.016C23.3547 25.7173 23.552 25.3067 23.552 24.784C23.552 24.24 23.3547 23.8187 22.96 23.52C22.5653 23.2213 22.0107 23.072 21.296 23.072H18.864V26.448ZM30.845 28.096C30.0237 28.096 29.293 27.9253 28.653 27.584C28.0237 27.232 27.533 26.7413 27.181 26.112C26.8397 25.472 26.669 24.736 26.669 23.904C26.669 23.0827 26.8397 22.3573 27.181 21.728C27.533 21.088 28.0237 20.592 28.653 20.24C29.293 19.888 30.0237 19.712 30.845 19.712C31.6663 19.712 32.3917 19.888 33.021 20.24C33.661 20.592 34.1517 21.088 34.493 21.728C34.845 22.3573 35.021 23.0827 35.021 23.904C35.021 24.736 34.845 25.472 34.493 26.112C34.1517 26.7413 33.661 27.232 33.021 27.584C32.3917 27.9253 31.6663 28.096 30.845 28.096ZM30.845 26.624C31.5703 26.624 32.1517 26.3733 32.589 25.872C33.037 25.36 33.261 24.704 33.261 23.904C33.261 23.104 33.037 22.4533 32.589 21.952C32.1517 21.44 31.5703 21.184 30.845 21.184C30.1197 21.184 29.5383 21.44 29.101 21.952C28.6637 22.4533 28.445 23.104 28.445 23.904C28.445 24.704 28.6637 25.36 29.101 25.872C29.5383 26.3733 30.1197 26.624 30.845 26.624ZM40.2825 28.096C39.4612 28.096 38.7305 27.9253 38.0905 27.584C37.4612 27.232 36.9705 26.7413 36.6185 26.112C36.2772 25.472 36.1065 24.736 36.1065 23.904C36.1065 23.0827 36.2772 22.3573 36.6185 21.728C36.9705 21.088 37.4612 20.592 38.0905 20.24C38.7305 19.888 39.4612 19.712 40.2825 19.712C41.1038 19.712 41.8292 19.888 42.4585 20.24C43.0985 20.592 43.5892 21.088 43.9305 21.728C44.2825 22.3573 44.4585 23.0827 44.4585 23.904C44.4585 24.736 44.2825 25.472 43.9305 26.112C43.5892 26.7413 43.0985 27.232 42.4585 27.584C41.8292 27.9253 41.1038 28.096 40.2825 28.096ZM40.2825 26.624C41.0078 26.624 41.5892 26.3733 42.0265 25.872C42.4745 25.36 42.6985 24.704 42.6985 23.904C42.6985 23.104 42.4745 22.4533 42.0265 21.952C41.5892 21.44 41.0078 21.184 40.2825 21.184C39.5572 21.184 38.9758 21.44 38.5385 21.952C38.1012 22.4533 37.8825 23.104 37.8825 23.904C37.8825 24.704 38.1012 25.36 38.5385 25.872C38.9758 26.3733 39.5572 26.624 40.2825 26.624ZM45.848 16.8H47.576V23.808L51.32 19.808H53.32L50.264 23.104L53.512 28H51.464L49.032 24.368L47.576 25.904V28H45.848V16.8ZM66.3755 26.496V28H65.4635C64.9302 28 64.5462 27.888 64.3115 27.664C64.0768 27.44 63.9595 27.1147 63.9595 26.688C63.3408 27.6267 62.4395 28.096 61.2555 28.096C60.3382 28.096 59.6022 27.8827 59.0475 27.456C58.4928 27.0293 58.2155 26.4427 58.2155 25.696C58.2155 24.8533 58.5142 24.208 59.1115 23.76C59.7088 23.3013 60.5782 23.072 61.7195 23.072H63.7835V22.576C63.7835 22.1173 63.6235 21.76 63.3035 21.504C62.9835 21.2373 62.5408 21.104 61.9755 21.104C61.4742 21.104 61.0582 21.216 60.7275 21.44C60.4075 21.6533 60.2155 21.9413 60.1515 22.304H58.4555C58.5408 21.4827 58.9035 20.848 59.5435 20.4C60.1835 19.9413 61.0208 19.712 62.0555 19.712C63.1542 19.712 64.0022 19.968 64.5995 20.48C65.1968 20.992 65.4955 21.728 65.4955 22.688V25.92C65.4955 26.304 65.6768 26.496 66.0395 26.496H66.3755ZM63.7835 24.352H61.6395C61.1062 24.352 60.6955 24.4587 60.4075 24.672C60.1195 24.8747 59.9755 25.1787 59.9755 25.584C59.9755 25.936 60.1088 26.2187 60.3755 26.432C60.6528 26.6453 61.0262 26.752 61.4955 26.752C62.2102 26.752 62.7648 26.56 63.1595 26.176C63.5648 25.792 63.7728 25.28 63.7835 24.64V24.352ZM71.5865 16.8H75.1545C76.2958 16.8 77.2932 17.0347 78.1465 17.504C78.9998 17.9733 79.6558 18.6293 80.1145 19.472C80.5732 20.3147 80.8025 21.2907 80.8025 22.4C80.8025 23.4987 80.5732 24.4747 80.1145 25.328C79.6558 26.1707 78.9998 26.8267 78.1465 27.296C77.2932 27.7653 76.2958 28 75.1545 28H71.5865V16.8ZM75.1545 26.4C76.3598 26.4 77.2878 26.0427 77.9385 25.328C78.5892 24.6027 78.9145 23.6267 78.9145 22.4C78.9145 21.1733 78.5892 20.2027 77.9385 19.488C77.2878 18.7627 76.3598 18.4 75.1545 18.4H73.4265V26.4H75.1545ZM81.9346 23.92C81.9346 23.0773 82.1 22.3413 82.4306 21.712C82.772 21.072 83.2413 20.5813 83.8386 20.24C84.4466 19.888 85.14 19.712 85.9186 19.712C86.708 19.712 87.4013 19.872 87.9986 20.192C88.6066 20.512 89.0813 20.9653 89.4226 21.552C89.7746 22.1387 89.956 22.8267 89.9666 23.616C89.9666 23.8293 89.9506 24.048 89.9186 24.272H83.7426V24.368C83.7853 25.0827 84.0093 25.648 84.4146 26.064C84.82 26.48 85.3586 26.688 86.0306 26.688C86.564 26.688 87.012 26.5653 87.3746 26.32C87.7373 26.064 87.9773 25.7067 88.0946 25.248H89.8226C89.6733 26.08 89.268 26.7627 88.6066 27.296C87.956 27.8293 87.14 28.096 86.1586 28.096C85.3053 28.096 84.5586 27.9253 83.9186 27.584C83.2893 27.232 82.7986 26.7413 82.4466 26.112C82.1053 25.4827 81.9346 24.752 81.9346 23.92ZM88.2066 23.008C88.132 22.4107 87.892 21.9467 87.4866 21.616C87.092 21.2747 86.5906 21.104 85.9826 21.104C85.4173 21.104 84.9266 21.28 84.5106 21.632C84.1053 21.9733 83.8706 22.432 83.8066 23.008H88.2066ZM100.82 19.712C101.716 19.712 102.446 20.0053 103.012 20.592C103.577 21.168 103.86 22.096 103.86 23.376V28H102.132V23.392C102.132 22.6773 101.988 22.1333 101.7 21.76C101.412 21.3867 100.985 21.2 100.42 21.2C99.8223 21.2 99.3476 21.4133 98.9956 21.84C98.6543 22.256 98.4836 22.832 98.4836 23.568V28H96.7396V23.392C96.7396 22.6667 96.5903 22.1227 96.2916 21.76C96.0036 21.3867 95.577 21.2 95.0116 21.2C94.425 21.2 93.9556 21.4187 93.6036 21.856C93.2623 22.2933 93.0916 22.88 93.0916 23.616V28H91.3636V19.808H92.8676L93.0596 20.88C93.6463 20.112 94.4463 19.7227 95.4596 19.712C96.0356 19.712 96.5423 19.8347 96.9796 20.08C97.417 20.3253 97.753 20.6987 97.9876 21.2C98.2756 20.7307 98.6543 20.368 99.1236 20.112C99.593 19.8453 100.158 19.712 100.82 19.712ZM109.298 28.096C108.477 28.096 107.746 27.9253 107.106 27.584C106.477 27.232 105.986 26.7413 105.634 26.112C105.293 25.472 105.122 24.736 105.122 23.904C105.122 23.0827 105.293 22.3573 105.634 21.728C105.986 21.088 106.477 20.592 107.106 20.24C107.746 19.888 108.477 19.712 109.298 19.712C110.119 19.712 110.845 19.888 111.474 20.24C112.114 20.592 112.605 21.088 112.946 21.728C113.298 22.3573 113.474 23.0827 113.474 23.904C113.474 24.736 113.298 25.472 112.946 26.112C112.605 26.7413 112.114 27.232 111.474 27.584C110.845 27.9253 110.119 28.096 109.298 28.096ZM109.298 26.624C110.023 26.624 110.605 26.3733 111.042 25.872C111.49 25.36 111.714 24.704 111.714 23.904C111.714 23.104 111.49 22.4533 111.042 21.952C110.605 21.44 110.023 21.184 109.298 21.184C108.573 21.184 107.991 21.44 107.554 21.952C107.117 22.4533 106.898 23.104 106.898 23.904C106.898 24.704 107.117 25.36 107.554 25.872C107.991 26.3733 108.573 26.624 109.298 26.624Z" fill="#0D0D0D"/>
<rect x="123" y="8" width="28" height="28" rx="14" fill="#2563EB"/>
<path d="M141.193 22.4425L134.943 28.6925C134.884 28.7506 134.816 28.7967 134.74 28.8281C134.664 28.8595 134.582 28.8757 134.5 28.8757C134.418 28.8757 134.337 28.8595 134.261 28.8281C134.185 28.7967 134.116 28.7506 134.058 28.6925C134 28.6345 133.954 28.5655 133.923 28.4897C133.891 28.4138 133.875 28.3325 133.875 28.2503C133.875 28.1682 133.891 28.0869 133.923 28.011C133.954 27.9352 134 27.8662 134.058 27.8082L139.867 22.0003L134.058 16.1925C133.941 16.0753 133.875 15.9162 133.875 15.7503C133.875 15.5845 133.941 15.4254 134.058 15.3082C134.175 15.1909 134.334 15.125 134.5 15.125C134.666 15.125 134.825 15.1909 134.943 15.3082L141.193 21.5582C141.251 21.6162 141.297 21.6851 141.328 21.761C141.36 21.8369 141.376 21.9182 141.376 22.0003C141.376 22.0825 141.36 22.1638 141.328 22.2397C141.297 22.3156 141.251 22.3845 141.193 22.4425Z" fill="#FEFFFF"/>
</svg>
