<svg width="35" height="35" viewBox="0 0 35 35" fill="none" xmlns="http://www.w3.org/2000/svg">
<path d="M30.4763 0H4.52372C2.02534 0 0 2.02534 0 4.52372V30.4763C0 32.9747 2.02534 35 4.52372 35H30.4763C32.9747 35 35 32.9747 35 30.4763V4.52372C35 2.02534 32.9747 0 30.4763 0Z" fill="#2563EB"/>
<path d="M27.5599 3.1923V7.73704C26.3869 7.74125 24.2078 7.94165 22.3117 9.41312C20.6258 10.722 19.7401 12.5887 19.2888 13.5388C19.1403 13.8528 19.1711 13.8205 18.3457 15.7783C18.0262 16.535 17.3171 18.2504 17.0508 18.8165C16.1637 20.7056 15.1015 22.9703 13.0106 24.4754C12.2454 25.0261 10.4348 26.129 7.44 26.1571V21.5226C8.38315 21.447 9.32489 21.2592 9.95412 20.7434C10.9505 19.9278 11.6989 18.8908 12.3197 17.7192H9.01658V14.7721H13.5922C13.7898 14.2367 13.9817 13.6902 14.1765 13.138C14.2424 12.9517 14.3069 12.7653 14.3741 12.5803C15.3775 9.74525 17.261 7.25636 19.6784 5.57748C22.0356 3.93924 24.7445 3.12083 27.5585 3.1923H27.5599Z" fill="white"/>
<path d="M24.0886 14.7723H27.5599V17.7194H22.7699C22.6213 18.0544 22.4588 18.4201 22.2808 18.8195C20.0161 23.8632 18.6568 25.7453 17.7262 26.8201C16.0936 28.7064 14.3979 29.7617 14.0756 29.9551C12.6069 30.8295 10.5076 31.2878 8.1939 31.2878C7.94585 31.2878 7.69359 31.2836 7.43994 31.271V27.8376C8.18969 27.8866 10.2764 27.9441 12.2678 26.8944C13.6075 26.1881 14.7062 25.1357 15.6395 23.9557C16.6626 22.6636 17.5062 21.2566 18.1635 19.7459C18.853 18.1637 19.4976 16.5647 20.2025 14.9895C20.6285 14.0394 21.0574 13.0556 21.6459 12.1839C22.2528 11.2842 23.0291 10.5106 23.9779 9.97669C24.4824 9.69361 25.0191 9.46658 25.5741 9.30262C26.0505 9.16248 26.7274 9.01113 27.5599 8.9873V12.4768C26.3981 12.7304 25.4521 13.1957 24.7346 13.867C24.4796 14.1066 24.3408 14.265 24.0886 14.7723Z" fill="white"/>
</svg>
