<svg width="49" height="49" viewBox="0 0 49 49" fill="none" xmlns="http://www.w3.org/2000/svg">
  <!-- Background circle -->
  <circle cx="24.5" cy="24.5" r="24.5" fill="#EFF5F8"/>
  <!-- Border circle -->
  <circle cx="24.5" cy="24.5" r="24" stroke="#051B11" stroke-opacity="0.1" stroke-width="1" fill="none"/>
  <!-- Icon centered -->
  <g transform="translate(16, 14)">
    <path d="M12.7501 20.2524C12.7501 20.4513 12.6711 20.6421 12.5305 20.7827C12.3898 20.9234 12.199 21.0024 12.0001 21.0024H4.50012C4.30121 21.0024 4.11045 20.9234 3.96979 20.7827C3.82914 20.6421 3.75012 20.4513 3.75012 20.2524C3.75012 20.0535 3.82914 19.8627 3.96979 19.7221C4.11045 19.5814 4.30121 19.5024 4.50012 19.5024H12.0001C12.199 19.5024 12.3898 19.5814 12.5305 19.7221C12.6711 19.8627 12.7501 20.0535 12.7501 20.2524ZM16.5001 8.2524C16.5034 9.50268 16.2209 10.7372 15.6743 11.8617C15.1278 12.9862 14.3315 13.971 13.3464 14.7408C13.1622 14.882 13.0127 15.0635 12.9093 15.2713C12.806 15.4791 12.7515 15.7078 12.7501 15.9399V16.5024C12.7501 16.9002 12.5921 17.2818 12.3108 17.5631C12.0295 17.8444 11.6479 18.0024 11.2501 18.0024H5.25012C4.8523 18.0024 4.47077 17.8444 4.18946 17.5631C3.90816 17.2818 3.75012 16.9002 3.75012 16.5024V15.9399C3.74997 15.7106 3.69724 15.4844 3.59599 15.2786C3.49474 15.0728 3.34766 14.893 3.16606 14.753C2.1835 13.9878 1.38787 13.0091 0.83937 11.891C0.290874 10.7729 0.00388621 9.54466 0.000122671 8.29927C-0.0242523 3.83021 3.587 0.110207 8.05137 0.00239455C9.15139 -0.0241136 10.2456 0.169694 11.2696 0.572411C12.2936 0.975128 13.2267 1.57862 14.0139 2.34735C14.8012 3.11609 15.4267 4.03455 15.8537 5.04867C16.2806 6.06278 16.5004 7.15206 16.5001 8.2524ZM15.0001 8.2524C15.0004 7.35208 14.8205 6.4608 14.4712 5.63104C14.1218 4.80128 13.6099 4.04979 12.9658 3.42081C12.3216 2.79184 11.5581 2.29808 10.7202 1.96862C9.88237 1.63916 8.98705 1.48064 8.087 1.50239C4.43075 1.58864 1.48044 4.63271 1.50012 8.28896C1.50348 9.30764 1.73852 10.3122 2.18745 11.2267C2.63639 12.1411 3.28745 12.9414 4.09137 13.5671C4.45273 13.848 4.74501 14.2079 4.94586 14.6191C5.1467 15.0304 5.25078 15.4822 5.25012 15.9399V16.5024H7.50012V12.3127L4.7195 9.53302C4.57877 9.39229 4.49971 9.20142 4.49971 9.0024C4.49971 8.80337 4.57877 8.6125 4.7195 8.47177C4.86023 8.33104 5.0511 8.25198 5.25012 8.25198C5.44915 8.25198 5.64002 8.33104 5.78075 8.47177L8.25012 10.9421L10.7195 8.47177C10.7892 8.40209 10.8719 8.34681 10.963 8.3091C11.054 8.27139 11.1516 8.25198 11.2501 8.25198C11.3487 8.25198 11.4463 8.27139 11.5373 8.3091C11.6283 8.34681 11.7111 8.40209 11.7807 8.47177C11.8504 8.54145 11.9057 8.62418 11.9434 8.71522C11.9811 8.80627 12.0005 8.90385 12.0005 9.0024C12.0005 9.10094 11.9811 9.19852 11.9434 9.28957C11.9057 9.38061 11.8504 9.46334 11.7807 9.53302L9.00012 12.3127V16.5024H11.2501V15.9399C11.251 15.4809 11.3567 15.0281 11.5593 14.6162C11.762 14.2043 12.0561 13.8442 12.4192 13.5633C13.2255 12.9332 13.8772 12.1271 14.3245 11.2067C14.7718 10.2862 15.0029 9.27576 15.0001 8.2524Z" fill="black"/>
  </g>
</svg>
