<svg width="188" height="44" viewBox="0 0 188 44" fill="none" xmlns="http://www.w3.org/2000/svg">
<rect x="0.5" y="0.5" width="187" height="43" rx="21.5" stroke="#B9B9B9"/>
<path d="M18.416 24.352C18.4693 25.0133 18.736 25.5467 19.216 25.952C19.7067 26.3467 20.3413 26.544 21.12 26.544C21.8027 26.544 22.352 26.4 22.768 26.112C23.1947 25.8133 23.408 25.4027 23.408 24.88C23.408 24.5067 23.2907 24.2133 23.056 24C22.832 23.776 22.5227 23.6053 22.128 23.488C21.7333 23.3707 21.1787 23.248 20.464 23.12C19.7387 22.992 19.1147 22.8267 18.592 22.624C18.08 22.4107 17.6587 22.0907 17.328 21.664C17.008 21.2373 16.848 20.6773 16.848 19.984C16.848 19.344 17.0133 18.7733 17.344 18.272C17.6853 17.7707 18.1547 17.3813 18.752 17.104C19.36 16.8267 20.0533 16.688 20.832 16.688C21.632 16.688 22.3467 16.8373 22.976 17.136C23.6053 17.4347 24.1013 17.8453 24.464 18.368C24.8267 18.8907 25.024 19.488 25.056 20.16H23.248C23.184 19.584 22.9333 19.12 22.496 18.768C22.0587 18.416 21.504 18.24 20.832 18.24C20.1813 18.24 19.6587 18.384 19.264 18.672C18.88 18.9493 18.688 19.344 18.688 19.856C18.688 20.2187 18.8 20.5067 19.024 20.72C19.2587 20.9333 19.568 21.0933 19.952 21.2C20.336 21.3067 20.8853 21.424 21.6 21.552C22.3253 21.68 22.9493 21.8507 23.472 22.064C23.9947 22.2773 24.4213 22.592 24.752 23.008C25.0827 23.424 25.248 23.9733 25.248 24.656C25.248 25.3173 25.072 25.9093 24.72 26.432C24.368 26.9547 23.8773 27.3653 23.248 27.664C22.6187 27.952 21.904 28.096 21.104 28.096C20.2187 28.096 19.44 27.936 18.768 27.616C18.096 27.296 17.568 26.8533 17.184 26.288C16.8107 25.712 16.6187 25.056 16.608 24.32L18.416 24.352ZM26.3878 23.92C26.3878 23.0773 26.5531 22.3413 26.8838 21.712C27.2251 21.072 27.6944 20.5813 28.2918 20.24C28.8998 19.888 29.5931 19.712 30.3718 19.712C31.1611 19.712 31.8544 19.872 32.4518 20.192C33.0598 20.512 33.5344 20.9653 33.8758 21.552C34.2278 22.1387 34.4091 22.8267 34.4198 23.616C34.4198 23.8293 34.4038 24.048 34.3718 24.272H28.1957V24.368C28.2384 25.0827 28.4624 25.648 28.8678 26.064C29.2731 26.48 29.8118 26.688 30.4838 26.688C31.0171 26.688 31.4651 26.5653 31.8278 26.32C32.1904 26.064 32.4304 25.7067 32.5478 25.248H34.2758C34.1264 26.08 33.7211 26.7627 33.0598 27.296C32.4091 27.8293 31.5931 28.096 30.6118 28.096C29.7584 28.096 29.0118 27.9253 28.3718 27.584C27.7424 27.232 27.2518 26.7413 26.8997 26.112C26.5584 25.4827 26.3878 24.752 26.3878 23.92ZM32.6598 23.008C32.5851 22.4107 32.3451 21.9467 31.9398 21.616C31.5451 21.2747 31.0438 21.104 30.4358 21.104C29.8704 21.104 29.3798 21.28 28.9638 21.632C28.5584 21.9733 28.3238 22.432 28.2598 23.008H32.6598ZM35.5128 23.92C35.5128 23.0773 35.6781 22.3413 36.0088 21.712C36.3501 21.072 36.8194 20.5813 37.4168 20.24C38.0248 19.888 38.7181 19.712 39.4968 19.712C40.2861 19.712 40.9794 19.872 41.5768 20.192C42.1848 20.512 42.6594 20.9653 43.0008 21.552C43.3528 22.1387 43.5341 22.8267 43.5448 23.616C43.5448 23.8293 43.5288 24.048 43.4968 24.272H37.3207V24.368C37.3634 25.0827 37.5874 25.648 37.9928 26.064C38.3981 26.48 38.9368 26.688 39.6088 26.688C40.1421 26.688 40.5901 26.5653 40.9528 26.32C41.3154 26.064 41.5554 25.7067 41.6728 25.248H43.4008C43.2514 26.08 42.8461 26.7627 42.1848 27.296C41.5341 27.8293 40.7181 28.096 39.7368 28.096C38.8834 28.096 38.1368 27.9253 37.4968 27.584C36.8674 27.232 36.3768 26.7413 36.0247 26.112C35.6834 25.4827 35.5128 24.752 35.5128 23.92ZM41.7848 23.008C41.7101 22.4107 41.4701 21.9467 41.0648 21.616C40.6701 21.2747 40.1688 21.104 39.5608 21.104C38.9954 21.104 38.5048 21.28 38.0888 21.632C37.6834 21.9733 37.4488 22.432 37.3848 23.008H41.7848ZM49.2115 16.784H51.0515V21.504H56.2515V16.784H58.0915V28H56.2515V23.136H51.0515V28H49.2115V16.784ZM63.8294 28.096C63.008 28.096 62.2774 27.9253 61.6374 27.584C61.008 27.232 60.5174 26.7413 60.1654 26.112C59.824 25.472 59.6534 24.736 59.6534 23.904C59.6534 23.0827 59.824 22.3573 60.1654 21.728C60.5174 21.088 61.008 20.592 61.6374 20.24C62.2774 19.888 63.008 19.712 63.8294 19.712C64.6507 19.712 65.376 19.888 66.0054 20.24C66.6454 20.592 67.136 21.088 67.4774 21.728C67.8294 22.3573 68.0054 23.0827 68.0054 23.904C68.0054 24.736 67.8294 25.472 67.4774 26.112C67.136 26.7413 66.6454 27.232 66.0054 27.584C65.376 27.9253 64.6507 28.096 63.8294 28.096ZM63.8294 26.624C64.5547 26.624 65.136 26.3733 65.5734 25.872C66.0214 25.36 66.2454 24.704 66.2454 23.904C66.2454 23.104 66.0214 22.4533 65.5734 21.952C65.136 21.44 64.5547 21.184 63.8294 21.184C63.104 21.184 62.5227 21.44 62.0854 21.952C61.648 22.4533 61.4294 23.104 61.4294 23.904C61.4294 24.704 61.648 25.36 62.0854 25.872C62.5227 26.3733 63.104 26.624 63.8294 26.624ZM68.3765 19.808H70.2005L72.0725 26.08L73.9445 19.808H75.5285L77.3205 26.08L79.2565 19.808H81.0165L78.2965 28H76.4405L74.7125 22.432L72.9205 28L71.0485 28.016L68.3765 19.808ZM86.1959 16.8H88.0359V28H86.1959V16.8ZM90.4385 21.328H89.0145V19.808H90.4385V17.52H92.1825V19.808H94.1505V21.328H92.1825V25.6C92.1825 25.92 92.2465 26.1493 92.3745 26.288C92.5025 26.416 92.7212 26.48 93.0305 26.48H94.3425V28H92.6785C91.8998 28 91.3292 27.8187 90.9665 27.456C90.6145 27.0933 90.4385 26.5333 90.4385 25.776V21.328ZM98.8196 16.8L100.74 16.784L103.124 25.664L105.62 16.8H107.364L109.78 25.664L112.196 16.8H114.068L110.868 28H108.708L106.42 19.76L104.18 28H102.02L98.8196 16.8ZM118.361 28.096C117.539 28.096 116.809 27.9253 116.169 27.584C115.539 27.232 115.049 26.7413 114.697 26.112C114.355 25.472 114.185 24.736 114.185 23.904C114.185 23.0827 114.355 22.3573 114.697 21.728C115.049 21.088 115.539 20.592 116.169 20.24C116.809 19.888 117.539 19.712 118.361 19.712C119.182 19.712 119.907 19.888 120.537 20.24C121.177 20.592 121.667 21.088 122.009 21.728C122.361 22.3573 122.537 23.0827 122.537 23.904C122.537 24.736 122.361 25.472 122.009 26.112C121.667 26.7413 121.177 27.232 120.537 27.584C119.907 27.9253 119.182 28.096 118.361 28.096ZM118.361 26.624C119.086 26.624 119.667 26.3733 120.105 25.872C120.553 25.36 120.777 24.704 120.777 23.904C120.777 23.104 120.553 22.4533 120.105 21.952C119.667 21.44 119.086 21.184 118.361 21.184C117.635 21.184 117.054 21.44 116.617 21.952C116.179 22.4533 115.961 23.104 115.961 23.904C115.961 24.704 116.179 25.36 116.617 25.872C117.054 26.3733 117.635 26.624 118.361 26.624ZM128.454 19.808V21.424H127.686C126.971 21.424 126.454 21.6587 126.134 22.128C125.814 22.5867 125.654 23.1733 125.654 23.888V28H123.926V19.808H125.462L125.654 21.04C125.889 20.656 126.193 20.3573 126.566 20.144C126.939 19.92 127.441 19.808 128.07 19.808H128.454ZM129.551 16.8H131.279V23.808L135.023 19.808H137.023L133.967 23.104L137.215 28H135.167L132.735 24.368L131.279 25.904V28H129.551V16.8ZM139.208 25.296C139.24 25.7227 139.438 26.0747 139.8 26.352C140.174 26.6187 140.654 26.752 141.24 26.752C141.763 26.752 142.184 26.656 142.504 26.464C142.835 26.2613 143 25.9947 143 25.664C143 25.3867 142.926 25.1787 142.776 25.04C142.627 24.9013 142.424 24.8053 142.168 24.752C141.923 24.688 141.539 24.624 141.016 24.56C140.302 24.4747 139.71 24.3627 139.24 24.224C138.782 24.0747 138.408 23.8453 138.12 23.536C137.843 23.216 137.704 22.7893 137.704 22.256C137.704 21.7547 137.843 21.312 138.12 20.928C138.408 20.5333 138.798 20.2293 139.288 20.016C139.79 19.8027 140.355 19.696 140.984 19.696C142.019 19.696 142.856 19.9253 143.496 20.384C144.147 20.8427 144.499 21.488 144.552 22.32H142.872C142.83 21.9467 142.643 21.6427 142.312 21.408C141.982 21.1627 141.566 21.04 141.064 21.04C140.563 21.04 140.158 21.136 139.848 21.328C139.539 21.52 139.384 21.7813 139.384 22.112C139.384 22.3573 139.459 22.544 139.608 22.672C139.768 22.7893 139.966 22.8747 140.2 22.928C140.435 22.9707 140.814 23.024 141.336 23.088C142.04 23.1627 142.632 23.28 143.112 23.44C143.592 23.5893 143.976 23.8347 144.264 24.176C144.552 24.5067 144.696 24.96 144.696 25.536C144.696 26.048 144.547 26.5013 144.248 26.896C143.95 27.28 143.539 27.5787 143.016 27.792C142.494 27.9947 141.907 28.096 141.256 28.096C140.158 28.096 139.267 27.8507 138.584 27.36C137.912 26.8587 137.566 26.1707 137.544 25.296H139.208Z" fill="#0D0D0D"/>
<rect x="154" y="8" width="28" height="28" rx="14" fill="#0D0D0D"/>
<path d="M172.193 22.4425L165.943 28.6925C165.884 28.7506 165.816 28.7967 165.74 28.8281C165.664 28.8595 165.582 28.8757 165.5 28.8757C165.418 28.8757 165.337 28.8595 165.261 28.8281C165.185 28.7967 165.116 28.7506 165.058 28.6925C165 28.6345 164.954 28.5655 164.923 28.4897C164.891 28.4138 164.875 28.3325 164.875 28.2503C164.875 28.1682 164.891 28.0869 164.923 28.011C164.954 27.9352 165 27.8662 165.058 27.8082L170.867 22.0003L165.058 16.1925C164.941 16.0753 164.875 15.9162 164.875 15.7503C164.875 15.5845 164.941 15.4254 165.058 15.3082C165.175 15.1909 165.334 15.125 165.5 15.125C165.666 15.125 165.825 15.1909 165.943 15.3082L172.193 21.5582C172.251 21.6162 172.297 21.6851 172.328 21.761C172.36 21.8369 172.376 21.9182 172.376 22.0003C172.376 22.0825 172.36 22.1638 172.328 22.2397C172.297 22.3156 172.251 22.3845 172.193 22.4425Z" fill="#FEFFFF"/>
</svg>
